<svg id="Layer_1" style="enable-background:new 0 0 512 512;" version="1.1" viewBox="0 0 512 512" xml:space="preserve" xmlns="http://www.w3.org/2000/svg" xmlns:xlink="http://www.w3.org/1999/xlink"><style type="text/css">
	.st0{fill:#1EF6F6;}
	.st1{fill:#FDDD7B;}
	.st2{fill:#EAF3F2;}
	.st3{fill:#D4FF93;}
	.st4{fill:#FD535F;}
	.st5{stroke:#000000;stroke-width:2;stroke-linecap:round;stroke-linejoin:round;stroke-miterlimit:10;}
	.st6{fill:none;stroke:#000000;stroke-width:2;stroke-linecap:round;stroke-linejoin:round;stroke-miterlimit:10;}
	.st7{fill:#1EF6F6;stroke:#000000;stroke-width:2;stroke-linecap:round;stroke-linejoin:round;stroke-miterlimit:10;}
</style><g><g><path d="M503.27,492.91H8.73c-4.27,0-7.73-3.46-7.73-7.73c0-4.27,3.46-7.73,7.73-7.73h494.55c4.27,0,7.73,3.46,7.73,7.73    C511,489.45,507.54,492.91,503.27,492.91z"></path></g><g><path d="M51.12,334.34c-2.29,0-4.57-1.02-6.09-2.97c-2.63-3.37-2.03-8.23,1.33-10.85L414.87,32.48c3.38-2.63,8.23-2.02,10.85,1.33    c2.63,3.37,2.03,8.23-1.33,10.85L55.88,332.7C54.46,333.81,52.79,334.34,51.12,334.34z"></path></g><g><path d="M407.84,144.6c-0.3,0-0.62-0.02-0.93-0.05c-4.24-0.51-7.26-4.36-6.75-8.6l10.87-90.58L320.2,34.5    c-4.23-0.51-7.26-4.35-6.75-8.6c0.51-4.23,4.23-7.27,8.6-6.75l98.51,11.79c2.03,0.25,3.89,1.29,5.15,2.9    c1.27,1.61,1.84,3.66,1.6,5.7l-11.79,98.26C415.04,141.72,411.7,144.6,407.84,144.6z"></path></g><g><rect class="st0" height="341.85" width="43.46" x="428.17" y="143.34"></rect><path d="M471.62,492.91h-43.45c-4.27,0-7.73-3.46-7.73-7.73V143.34c0-4.27,3.46-7.73,7.73-7.73h43.45c4.27,0,7.73,3.46,7.73,7.73    v341.84C479.35,489.45,475.9,492.91,471.62,492.91z M435.9,477.46h28V151.07h-28V477.46z"></path></g><g><rect class="st2" height="279.82" width="43.46" x="319.4" y="205.37"></rect><path d="M362.86,492.91H319.4c-4.27,0-7.73-3.46-7.73-7.73V205.37c0-4.27,3.46-7.73,7.73-7.73h43.46c4.27,0,7.73,3.46,7.73,7.73    v279.81C370.59,489.45,367.13,492.91,362.86,492.91z M327.13,477.46h28V213.1h-28V477.46z"></path></g><g><rect class="st1" height="201.27" width="43.46" x="210.63" y="283.92"></rect><path d="M254.09,492.91h-43.46c-4.27,0-7.73-3.46-7.73-7.73V283.92c0-4.27,3.46-7.73,7.73-7.73h43.46c4.27,0,7.73,3.46,7.73,7.73    v201.26C261.82,489.45,258.36,492.91,254.09,492.91z M218.36,477.46h28V291.65h-28V477.46z"></path></g><g><rect class="st4" height="115.57" width="45.97" x="101.87" y="369.62"></rect><path d="M147.84,492.91h-45.97c-4.27,0-7.73-3.46-7.73-7.73V369.62c0-4.27,3.46-7.73,7.73-7.73h45.97c4.27,0,7.73,3.46,7.73,7.73    v115.56C155.56,489.45,152.1,492.91,147.84,492.91z M109.59,477.46h30.52V377.35h-30.52V477.46z"></path></g></g></svg>