<svg height="512" viewBox="0 0 512 512" width="512" xmlns="http://www.w3.org/2000/svg"><g><g><circle cx="256" cy="96" fill="#7bd7ef" r="72"></circle><path d="M472,252.232V192a32,32,0,0,0-32-32h0a32,32,0,0,0-32,32v60.232a48,48,0,1,0,64,0Z" fill="#c0dce2"></path><polygon fill="#c0dce2" points="56 336 56 224 40 208 56 168 72 168 72 160 128 160 128 224 96 224 96 336 56 336"></polygon><path d="M288,344l91.394,13.056A24,24,0,0,1,400,380.815V488H112V380.815a24,24,0,0,1,20.606-23.759L224,344Z" fill="#f88ad6"></path><path d="M256,344v32h0a24,24,0,0,1-24,24h0a32,32,0,0,1-32-32V344Z" fill="#fcd4ef"></path><path d="M256,344v32h0a24,24,0,0,0,24,24h0a32,32,0,0,0,32-32V344Z" fill="#fcd4ef"></path><path d="M256,296H224v48a32,32,0,0,0,9.373,22.627h0a32,32,0,0,0,45.254,0h0A32,32,0,0,0,288,344V296Z" fill="#fac8b2"></path><circle cx="256" cy="256" fill="#fac8b2" r="80"></circle><path d="M208,296s24-8,48-8,48,8,48,8v24s-8,24-48,24-48-24-48-24Z" fill="#f88ad6"></path><polygon fill="#fac8b2" points="24 304 104 304 104 248 56 248 56 232 40 232 24 248 24 304"></polygon><path d="M440,280a8,8,0,0,1-8-8V232a8,8,0,0,1,16,0v40A8,8,0,0,1,440,280Z" fill="#e22526"></path><circle cx="440" cy="288" fill="#e22526" r="16"></circle><path d="M240,112a7.974,7.974,0,0,1-5.657-2.343l-8-8a8,8,0,0,1,11.314-11.314L240,92.687l26.343-26.344a8,8,0,0,1,11.314,11.314l-32,32A7.974,7.974,0,0,1,240,112Z" fill="#00a8e7"></path><circle cx="232" cy="272" fill="#8e4b19" r="8"></circle><circle cx="280" cy="272" fill="#8e4b19" r="8"></circle><path d="M256,144h19.716A68.283,68.283,0,0,1,324,164h0a68.283,68.283,0,0,1,20,48.284l3.735,24.144A244.683,244.683,0,0,0,362.362,289.9h0a41.449,41.449,0,0,1,.837,28.5h0a41.445,41.445,0,0,1-46.132,27.775L304,344V248H280l-8-24-8,24H208v96l-13.068,2.178A41.446,41.446,0,0,1,148.8,318.4h0a41.449,41.449,0,0,1,.838-28.5h0a244.794,244.794,0,0,0,14.627-53.476L168,212.284A68.283,68.283,0,0,1,188,164h0a68.282,68.282,0,0,1,48.284-20Z" fill="#8e4b19"></path><path d="M128,192l121.194-30.3A31.232,31.232,0,0,1,288,192h0a31.232,31.232,0,0,1-38.806,30.3Z" fill="#e92949"></path><path d="M400,448H360V432H344v16a35.117,35.117,0,0,1-4.859,15.884C332.724,474.578,320.9,480,304,480c-17.118,0-25.868-11.175-30.194-20.55a19.57,19.57,0,0,0-35.612,0C233.868,468.825,225.118,480,208,480c-38.458,0-39.955-28.752-40-32.047V432H152v16H112v16h40v24h16v-5.183C176.125,490.044,188.677,496,208,496c19.668,0,35.969-10.878,44.722-29.845a3.571,3.571,0,0,1,6.556,0C268.031,485.122,284.332,496,304,496c19.323,0,31.875-5.956,40-13.183V488h16V464h40Z" fill="#db77c1"></path></g><path d="M480,248.82V192a40,40,0,0,0-80,0v56.817C365.544,284.2,390.424,343.5,439.739,344,489.345,344.154,514.589,284.3,480,248.82Zm-11.781,67.53c-24.321,24.553-66.8,7.557-68.188-26.759a39.942,39.942,0,0,1,13.305-31.4A8,8,0,0,0,416,252.232V192c1.3-31.8,46.671-31.864,48,0v60.232a8,8,0,0,0,2.664,5.96C483.643,272.875,484.456,300.814,468.219,316.35Zm-87.7,32.79-27.44-3.921c17.82-12.612,25.246-37.882,16.708-58.288-9.832-23.3-14.284-50.3-17.792-75.282a76.451,76.451,0,0,0-35.222-63.642C361.023,96.768,323.856,15.777,256,16c-67.854-.224-105.026,80.78-60.773,132.007a75.931,75.931,0,0,0-24.334,25.023L136,181.754V160a8,8,0,0,0-8-8H72a8,8,0,0,0-8,8H56a8,8,0,0,0-7.428,5.029l-16,40a8,8,0,0,0,1.771,8.628L44.686,224H40a8,8,0,0,0-5.657,2.343l-16,16A8,8,0,0,0,16,248v56a8,8,0,0,0,8,8H48v24a8,8,0,0,0,8,8H96a8,8,0,0,0,8-8V312a8,8,0,0,0,8-8V248a8,8,0,0,0-8-8v-8h24a8,8,0,0,0,8-8V202.246l24.114,6.029c-.059,1.123-.1,2.247-.111,3.372-2.387,15.158-5.023,35.3-9.25,49.825a237.358,237.358,0,0,1-8.544,25.466A49.341,49.341,0,0,0,138.67,305.3c-.187,15.454,7.983,31.237,20.179,39.929l-27.37,3.911A32.161,32.161,0,0,0,104,380.82V488a8,8,0,0,0,8,8H400a8,8,0,0,0,8-8V380.82A32.161,32.161,0,0,0,380.521,349.14ZM32,251.313,43.313,240H48v8a8,8,0,0,0,8,8H96v40H32ZM88,328H64V312H88Zm32-112H96a8,8,0,0,0-8,8v16H64c0-3.991,0-12.011,0-16a8,8,0,0,0-2.343-5.657l-12.27-12.27L61.416,176H72a8,8,0,0,0,8-8h40Zm151.59,34.53L272,249.3a8.28,8.28,0,0,0,8,6.7h16v29.427c-9.661-2.42-24.728-5.427-40-5.427s-30.339,3.007-40,5.427V256h48A8,8,0,0,0,271.59,250.53ZM256,368a24.1,24.1,0,0,1-23.494-19.076c12.3,4.025,34.682,4.026,46.98,0A24.077,24.077,0,0,1,256,368Zm40-49.646c-1.083,2.15-4.294,7.26-11.771,11.431-13.183,8.22-43.3,8.21-56.458,0-7.477-4.171-10.688-9.281-11.771-11.431V301.979a140.4,140.4,0,0,1,80,0Zm-88,36.014,9.039-1.292a40.21,40.21,0,0,0,29.4,29.778c-5.9,12.576-22.875,10.985-31.416,2.118A23.839,23.839,0,0,1,208,368Zm76.287,17.919a39.9,39.9,0,0,0,10.663-19.212l9.05,1.293V368a23.843,23.843,0,0,1-7.027,16.973c-8.539,8.868-25.528,10.454-31.415-2.12A39.738,39.738,0,0,0,284.287,372.287ZM256,32c56.258-.105,85.14,68.555,45.828,108.635A75.568,75.568,0,0,0,275.72,136H236.28a75.834,75.834,0,0,0-26.12,4.624C170.85,100.524,199.775,31.887,256,32ZM211.7,157.252A59.84,59.84,0,0,1,236.28,152h39.44A60.285,60.285,0,0,1,336,212.28a7.935,7.935,0,0,0,.094,1.222l3.731,24.153a253.546,253.546,0,0,0,15.105,55.208,33.458,33.458,0,0,1,2.4,12.437c.362,20.161-19.092,36.728-38.938,32.99L312,337.221c.007-23.98,0-64.879,0-89.221a8,8,0,0,0-8-8H285.766l-5.518-16.555c21.571-15.824,20.9-49.657-2.129-64.363a38.807,38.807,0,0,0-30.868-5.144l-50.134,12.535A60.1,60.1,0,0,1,211.7,157.252Zm39.434,12.21a22.97,22.97,0,0,1,18.279,3.041c19.265,12.629,10.418,42.579-12.578,42.747a23.662,23.662,0,0,1-5.7-.711L160.976,192ZM154.67,305.3a33.434,33.434,0,0,1,2.4-12.428,253.045,253.045,0,0,0,9.12-27.181c4.469-15.707,7.514-37.1,9.813-53.444l71.258,17.816a39.1,39.1,0,0,0,13.978.932l-3,9H208a8,8,0,0,0-8,8v89.221l-6.385,1.067C173.56,342,154.424,325.6,154.67,305.3Zm-20.928,59.679L192,356.655V368a39.742,39.742,0,0,0,11.713,28.287c13.562,14.1,38.967,16.581,52.288.865,13.309,15.714,38.727,13.235,52.286-.865A39.742,39.742,0,0,0,320,368V356.655l58.258,8.324A16.083,16.083,0,0,1,392,380.82V448H360V432c-.388-10.6-15.625-10.583-16,0v15.981a35.084,35.084,0,0,1-4.86,15.9C332.724,474.578,320.9,480,304,480c-17.118,0-25.868-11.175-30.194-20.55-6.937-15.166-28.68-15.159-35.612,0C233.868,468.825,225.118,480,208,480c-38.458,0-39.955-28.752-40-32.047,0-.016,0-15.936,0-15.953-.362-10.568-15.612-10.62-16,0v16H120V380.82A16.083,16.083,0,0,1,133.742,364.979ZM268.209,480H243.791a56.619,56.619,0,0,0,8.931-13.845,3.571,3.571,0,0,1,6.556,0A56.619,56.619,0,0,0,268.209,480ZM120,464h32v16H120Zm240,16V464h32v16Zm96-192a16,16,0,0,1-16,16c-16.6-.177-21.992-22.01-7.738-30a7.99,7.99,0,0,1-.262-2V232a8,8,0,0,1,16,0v40a7.99,7.99,0,0,1-.262,2A15.991,15.991,0,0,1,456,288ZM226.343,101.657c-7.23-7.751,3.57-18.54,11.314-11.314L240,92.687l26.343-26.344c7.734-7.222,18.549,3.556,11.314,11.314l-32,32a8,8,0,0,1-11.314,0ZM224,272a8,8,0,0,1,8-8c10.6.392,10.6,15.609,0,16A8,8,0,0,1,224,272Zm48,0a8,8,0,0,1,8-8c10.6.392,10.6,15.609,0,16A8,8,0,0,1,272,272Z"></path></g></svg>