<svg viewBox="0 0 512 512" xmlns="http://www.w3.org/2000/svg"><defs><style>.cls-1{fill:#5ca4cc;}.cls-2{fill:#338dbf;}.cls-3{fill:#dfdfdf;}.cls-4{fill:#cbe2ef;}.cls-5{fill:#fda5a3;}.cls-6{fill:#f9dbdb;}.cls-7{fill:#00b378;}.cls-8{fill:#00a16c;}.cls-9{fill:#bebebe;}.cls-10{fill:#4e8cae;}.cls-11{fill:#2c78a3;}.cls-12{fill:#d78d8b;}.cls-13{fill:#096;}.cls-14{fill:#00895c;}.cls-15{fill:#a2a2a2;}.cls-16{fill:#8c8c8c;}</style></defs><title></title><g id="_FILLED_OUTLINE"><path class="cls-1" d="M304,24H208a16.00008,16.00008,0,0,0-16,16v96H320V40A16.00008,16.00008,0,0,0,304,24Z"></path><path class="cls-2" d="M176,136v16a16.00008,16.00008,0,0,0,16,16H320a16.00008,16.00008,0,0,0,16-16V136Z"></path><path class="cls-3" d="M403.78223,109.62939A207.55263,207.55263,0,0,0,340.7373,65.98486l6.5254-14.60937a223.475,223.475,0,0,1,67.88671,46.99414Z"></path><path class="cls-3" d="M59.834,186.666l-15.08593-5.332A225.163,225.163,0,0,1,164.7373,51.37549l6.5254,14.60937A209.08546,209.08546,0,0,0,59.834,186.666Z"></path><path class="cls-3" d="M98.37012,415.1499A225.3589,225.3589,0,0,1,44.74805,330.666L59.834,325.334a209.26491,209.26491,0,0,0,49.7959,78.44873Z"></path><path class="cls-3" d="M430.03027,397.041,417.60645,386.96a208.94865,208.94865,0,0,0,20.74511-30.81738l14.01758,7.71484A225.05732,225.05732,0,0,1,430.03027,397.041Z"></path><path class="cls-4" d="M244.4376,57.35705l25.5778,17.05186a8,8,0,0,1,0,13.31281l-25.5778,17.05186A8,8,0,0,1,232,98.11718V64.01345A8,8,0,0,1,244.4376,57.35705Z"></path><circle class="cls-5" cx="272" cy="256" r="56"></circle><polygon class="cls-6" points="253.657 285.657 242.343 274.343 264 252.687 264 224 280 224 280 259.313 253.657 285.657"></polygon><rect class="cls-7" height="96" rx="16" width="48" x="24" y="208"></rect><rect class="cls-8" height="32" width="56" x="72" y="240"></rect><rect class="cls-7" height="96" rx="16" width="48" x="128" y="208"></rect><path class="cls-2" d="M96,440a16,16,0,0,0-16,16h0a16.00008,16.00008,0,0,0,16,16h80V440Z"></path><rect class="cls-4" height="16" width="16" x="248" y="360"></rect><rect class="cls-4" height="16" width="16" x="160" y="352"></rect><rect class="cls-4" height="16" width="16" x="168" y="400"></rect><rect class="cls-4" height="16" width="16" x="192" y="368"></rect><rect class="cls-4" height="16" width="16" x="216" y="392"></rect><rect class="cls-4" height="16" width="16" x="216" y="344"></rect><rect class="cls-4" height="16" width="16" x="264" y="400"></rect><path class="cls-9" d="M384,272l6.248,49.98462A16.00012,16.00012,0,0,0,406.12451,336h35.751A16.00012,16.00012,0,0,0,457.752,321.98462L464,272Z"></path><rect class="cls-8" height="56" width="16" x="416" y="216"></rect><path class="cls-7" d="M488,176h0a57.94108,57.94108,0,0,0-40.97053,16.97055l-6.0589,6.0589A57.94108,57.94108,0,0,0,424,240v0h0a57.94108,57.94108,0,0,0,40.97053-16.97055l6.0589-6.0589A57.94108,57.94108,0,0,0,488,176Z"></path><path class="cls-7" d="M360,176h0a57.94108,57.94108,0,0,1,40.97053,16.97055l6.0589,6.0589A57.94108,57.94108,0,0,1,424,240v0h0a57.94108,57.94108,0,0,1-40.97053-16.97055l-6.0589-6.0589A57.94108,57.94108,0,0,1,360,176Z"></path><rect class="cls-1" height="16.00003" transform="translate(162.08411 465.40548) rotate(-66.03822)" width="43.77253" x="417.22507" y="99.99998"></rect><rect class="cls-1" height="16.00003" transform="translate(110.2626 473.6656) rotate(-66.03822)" width="17.50917" x="410.80108" y="143.99998"></rect><path class="cls-2" d="M299.31371,356.68629l25.37258-25.37258a16,16,0,0,1,22.62742,0l16,16A16,16,0,0,1,368,358.62742V376l68,68a16.97055,16.97055,0,0,1,0,24l0,0a16.97055,16.97055,0,0,1-24,0l-68-68H326.62742a16,16,0,0,1-11.31371-4.68629l-16-16A16,16,0,0,1,299.31371,356.68629Z"></path><rect class="cls-1" height="16.00003" transform="translate(185.83902 501.95815) rotate(-66.03822)" width="43.77253" x="457.22507" y="99.99998"></rect><rect class="cls-1" height="16.00003" transform="translate(134.01752 510.21826) rotate(-66.03822)" width="17.50917" x="450.80108" y="143.99998"></rect><path class="cls-1" d="M200,488H312a32,32,0,0,0,32-32V440H168v16A32,32,0,0,0,200,488Z"></path><path class="cls-10" d="M282.50146,136H320V90.02344A144.59478,144.59478,0,0,1,282.50146,136Z"></path><path class="cls-11" d="M192,168H320a16.00008,16.00008,0,0,0,16-16V136H282.50146A143.38654,143.38654,0,0,1,192,168Z"></path><path class="cls-12" d="M248.99976,307.05566a55.99441,55.99441,0,0,0,74.0559-74.05578A112.252,112.252,0,0,1,248.99976,307.05566Z"></path><path class="cls-13" d="M34.207,302.90186A15.9304,15.9304,0,0,0,40,304H56a16.00008,16.00008,0,0,0,16-16V256A48.0099,48.0099,0,0,1,34.207,302.90186Z"></path><path class="cls-13" d="M138.207,302.90186A15.9304,15.9304,0,0,0,144,304h16a16.00008,16.00008,0,0,0,16-16V256A48.0099,48.0099,0,0,1,138.207,302.90186Z"></path><path class="cls-14" d="M96,272h32V240A32,32,0,0,1,96,272Z"></path><path class="cls-15" d="M401.60181,335.34363a15.9737,15.9737,0,0,0,4.5227.65637h35.751A16.00012,16.00012,0,0,0,457.752,321.98462L464,272h-.45288A72.01059,72.01059,0,0,1,401.60181,335.34363Z"></path><rect class="cls-16" height="16" width="96" x="376" y="264"></rect><path class="cls-11" d="M390.80518,446.8053,412,468a16.97056,16.97056,0,0,0,24-24l-21.19458-21.19458A152.89507,152.89507,0,0,1,390.80518,446.8053Z"></path><path class="cls-10" d="M256,488h56a32,32,0,0,0,32-32V440h-9.59619A87.99543,87.99543,0,0,1,256,488Z"></path><path d="M415.14941,98.36963A223.475,223.475,0,0,0,347.2627,51.37549l-6.5254,14.60937a207.55263,207.55263,0,0,1,63.04493,43.64453Z"></path><path d="M171.2627,65.98486l-6.5254-14.60937A225.163,225.163,0,0,0,44.74805,181.334L59.834,186.666A209.08546,209.08546,0,0,1,171.2627,65.98486Z"></path><path d="M109.62988,403.78271A209.26491,209.26491,0,0,1,59.834,325.334l-15.08593,5.332A225.3589,225.3589,0,0,0,98.37012,415.1499Z"></path><path d="M417.60645,386.96,430.03027,397.041a225.05732,225.05732,0,0,0,22.33887-33.1836l-14.01758-7.71484A208.94865,208.94865,0,0,1,417.60645,386.96Z"></path><path d="M274.45312,67.75244,248.875,50.70068V50.7002A16.00028,16.00028,0,0,0,224,64.01367V98.11719a15.99444,15.99444,0,0,0,24.875,13.3125l25.57812-17.05127a16.00009,16.00009,0,0,0,0-26.626ZM240,98.11719l-.042-34.12842a.29914.29914,0,0,1,.042.0249v-.00049l25.57812,17.05225Z"></path><path d="M336,256a64,64,0,1,0-64,64A64.07239,64.07239,0,0,0,336,256Zm-64,48a48,48,0,1,1,48-48A48.05405,48.05405,0,0,1,272,304Z"></path><polygon points="264 252.687 242.343 274.343 253.657 285.657 280 259.313 280 224 264 224 264 252.687"></polygon><path d="M80,288v-8h40v8a24.02718,24.02718,0,0,0,24,24h16a24.02718,24.02718,0,0,0,24-24V224a24.02718,24.02718,0,0,0-24-24H144a24.02718,24.02718,0,0,0-24,24v8H80v-8a24.02718,24.02718,0,0,0-24-24H40a24.02718,24.02718,0,0,0-24,24v64a24.02718,24.02718,0,0,0,24,24H56A24.02718,24.02718,0,0,0,80,288Zm56-64a8.00917,8.00917,0,0,1,8-8h16a8.00917,8.00917,0,0,1,8,8v64a8.00917,8.00917,0,0,1-8,8H144a8.00917,8.00917,0,0,1-8-8ZM80,248h40v16H80ZM32,288V224a8.00917,8.00917,0,0,1,8-8H56a8.00917,8.00917,0,0,1,8,8v64a8.00917,8.00917,0,0,1-8,8H40A8.00917,8.00917,0,0,1,32,288Z"></path><path d="M96,432a24,24,0,0,0,0,48h72v-.02795A39.96343,39.96343,0,0,0,200,496H312a40.04552,40.04552,0,0,0,40-40V432Zm0,32a8,8,0,0,1,0-16h64v8a40.037,40.037,0,0,0,.80493,8Zm240-8a24.0275,24.0275,0,0,1-24,24H200a24.0275,24.0275,0,0,1-24-24v-8H336Z"></path><rect height="16" width="16" x="248" y="360"></rect><rect height="16" width="16" x="160" y="352"></rect><rect height="16" width="16" x="168" y="400"></rect><rect height="16" width="16" x="192" y="368"></rect><rect height="16" width="16" x="216" y="392"></rect><rect height="16" width="16" x="216" y="344"></rect><rect height="16" width="16" x="264" y="400"></rect><path d="M432,247.50293A65.42965,65.42965,0,0,0,470.62793,228.686l6.05859-6.0586A65.51183,65.51183,0,0,0,496,176v-8h-8a65.51024,65.51024,0,0,0-46.62793,19.314l-6.05859,6.0586A66.19,66.19,0,0,0,424,208.47791a66.19,66.19,0,0,0-11.31348-15.10535l-6.05859-6.0586A65.51024,65.51024,0,0,0,360,168h-8v8a65.51183,65.51183,0,0,0,19.31348,46.62744l6.05859,6.0586A65.42965,65.42965,0,0,0,416,247.50293V264H368v16h8.9375l5.37207,42.97656A24.03946,24.03946,0,0,0,406.125,344h35.75a24.03946,24.03946,0,0,0,23.81543-21.02344L471.0625,280H480V264H432V247.50293ZM446.62793,204.686l6.05859-6.0586a49.576,49.576,0,0,1,26.55274-13.86621A49.58107,49.58107,0,0,1,465.37207,211.314l-6.05859,6.0586a49.576,49.576,0,0,1-26.55274,13.86621A49.58107,49.58107,0,0,1,446.62793,204.686Zm-57.94141,12.68652-6.05859-6.0586a49.58107,49.58107,0,0,1-13.86719-26.55273,49.576,49.576,0,0,1,26.55274,13.86621l6.05859,6.0586a49.58107,49.58107,0,0,1,13.86719,26.55273A49.576,49.576,0,0,1,388.68652,217.37256ZM454.9375,280l-5.124,40.99219A8.01243,8.01243,0,0,1,441.875,328h-35.75a8.01243,8.01243,0,0,1-7.93848-7.00781L393.0625,280Z"></path><rect height="16.00003" transform="translate(162.08411 465.40548) rotate(-66.03822)" width="43.77253" x="417.22507" y="99.99998"></rect><rect height="16.00003" transform="translate(110.25497 473.65826) rotate(-66.03686)" width="17.50917" x="410.80108" y="143.99998"></rect><path d="M168,152a24.0275,24.0275,0,0,0,24,24H320a24.0275,24.0275,0,0,0,24-24V128H328V40a24.02718,24.02718,0,0,0-24-24H208a24.02718,24.02718,0,0,0-24,24v88H168ZM200,40a8.00917,8.00917,0,0,1,8-8h96a8.00917,8.00917,0,0,1,8,8v88H200ZM184,144H328v8a8.00917,8.00917,0,0,1-8,8H192a8.00917,8.00917,0,0,1-8-8Z"></path><path d="M376,372.68652V358.62744a23.84254,23.84254,0,0,0-7.0293-16.9707l-16-16a24.02784,24.02784,0,0,0-33.9414,0l-25.373,25.373a24.02666,24.02666,0,0,0,0,33.94042l16,16A23.84385,23.84385,0,0,0,326.627,408h14.05957l65.65625,65.65674a24.97075,24.97075,0,0,0,35.31446-35.31348Zm54.34277,89.65674a8.9696,8.9696,0,0,1-12.68554,0L347.31348,392H326.627a7.94524,7.94524,0,0,1-5.65625-2.34326l-16-16a8.00889,8.00889,0,0,1,0-11.31348l25.373-25.373a8.00772,8.00772,0,0,1,11.3125,0l16,16A7.94677,7.94677,0,0,1,360,358.62744v20.686l70.34277,70.34326A8.98022,8.98022,0,0,1,430.34277,462.34326Z"></path><rect height="16.00003" transform="translate(185.83902 501.95815) rotate(-66.03822)" width="43.77253" x="457.22507" y="99.99998"></rect><rect height="16.00003" transform="translate(134.00902 510.21054) rotate(-66.03686)" width="17.50917" x="450.80108" y="143.99998"></rect></g></svg>