<svg width="173" height="173" viewBox="0 0 173 173" fill="none" xmlns="http://www.w3.org/2000/svg">
<rect x="29.537" y="23.9106" width="113.224" height="140.65" rx="4.325" fill="white"/>
<path d="M127.047 64.875L129.75 48.6562L110.828 51.3594L127.047 67.5781V64.875Z" fill="#42B9CC"/>
<path d="M59.4688 127.047H43.25V148.672H78.3906V127.047H59.4688Z" fill="#42B9CC"/>
<path d="M127.047 8.10938H45.9531V35.1406H127.047V8.10938Z" fill="#42B9CC"/>
<path d="M132.453 21.625H129.75V8.10938C129.75 7.39246 129.465 6.70491 128.958 6.19798C128.451 5.69104 127.764 5.40625 127.047 5.40625H45.9531C45.2362 5.40625 44.5487 5.69104 44.0417 6.19798C43.5348 6.70491 43.25 7.39246 43.25 8.10938V21.625H40.5469C36.9636 21.6293 33.5284 23.0546 30.9946 25.5884C28.4609 28.1221 27.0355 31.5574 27.0312 35.1406V154.078C27.0355 157.661 28.4609 161.097 30.9946 163.63C33.5284 166.164 36.9636 167.589 40.5469 167.594H132.453C136.036 167.589 139.472 166.164 142.005 163.63C144.539 161.097 145.964 157.661 145.969 154.078V35.1406C145.964 31.5574 144.539 28.1221 142.005 25.5884C139.472 23.0546 136.036 21.6293 132.453 21.625ZM48.6562 10.8125H124.344V32.4375H48.6562V10.8125ZM140.562 154.078C140.562 156.229 139.708 158.292 138.187 159.812C136.667 161.333 134.604 162.188 132.453 162.188H40.5469C38.3961 162.188 36.3335 161.333 34.8127 159.812C33.2919 158.292 32.4375 156.229 32.4375 154.078V35.1406C32.4375 32.9899 33.2919 30.9272 34.8127 29.4064C36.3335 27.8856 38.3961 27.0312 40.5469 27.0312H43.25V35.1406C43.25 35.8575 43.5348 36.5451 44.0417 37.052C44.5487 37.559 45.2362 37.8438 45.9531 37.8438H127.047C127.764 37.8438 128.451 37.559 128.958 37.052C129.465 36.5451 129.75 35.8575 129.75 35.1406V27.0312H132.453C134.604 27.0312 136.667 27.8856 138.187 29.4064C139.708 30.9272 140.562 32.9899 140.562 35.1406V154.078Z" fill="black"/>
<path d="M129.548 45.6832L110.434 49.5054C109.955 49.6019 109.511 49.8263 109.15 50.1549C108.788 50.4834 108.522 50.9037 108.381 51.3712C108.239 51.8387 108.227 52.3359 108.345 52.8098C108.463 53.2837 108.708 53.7168 109.053 54.0629L114.786 59.7962L97.3128 77.2719L88.4115 68.3705C87.9045 67.8638 87.2171 67.5791 86.5003 67.5791C85.7836 67.5791 85.0961 67.8638 84.5892 68.3705L70.0275 82.9323L61.091 76.2285C60.5704 75.8382 59.9265 75.6488 59.2776 75.6949C58.6286 75.7411 58.018 76.0198 57.558 76.4799L41.3392 92.6986L45.1615 96.5209L59.7232 81.9591L68.6597 88.6629C69.1803 89.0532 69.8241 89.2426 70.4731 89.1964C71.1221 89.1503 71.7327 88.8716 72.1927 88.4115L86.5003 74.1038L95.4017 83.0052C95.9086 83.512 96.5961 83.7967 97.3128 83.7967C98.0296 83.7967 98.717 83.512 99.2239 83.0052L118.611 63.6184L124.344 69.3545C124.69 69.7006 125.123 69.9464 125.598 70.0656C126.073 70.1847 126.571 70.1727 127.039 70.0309C127.508 69.8891 127.929 69.6228 128.258 69.2604C128.587 68.898 128.811 68.4531 128.907 67.9732L132.724 48.8594C132.81 48.4238 132.787 47.9737 132.658 47.5488C132.529 47.124 132.297 46.7375 131.983 46.4236C131.669 46.1096 131.283 45.8778 130.858 45.7487C130.433 45.6195 129.983 45.5971 129.548 45.6832ZM124.595 61.9641L116.448 53.8169L126.634 51.7814L124.595 61.9641Z" fill="black"/>
<path d="M129.75 113.531H43.25C42.5331 113.531 41.8455 113.816 41.3386 114.323C40.8317 114.83 40.5469 115.517 40.5469 116.234C40.5469 116.951 40.8317 117.639 41.3386 118.146C41.8455 118.653 42.5331 118.938 43.25 118.938H129.75C130.467 118.938 131.154 118.653 131.661 118.146C132.168 117.639 132.453 116.951 132.453 116.234C132.453 115.517 132.168 114.83 131.661 114.323C131.154 113.816 130.467 113.531 129.75 113.531Z" fill="black"/>
<path d="M129.75 102.719H43.25C42.5331 102.719 41.8455 103.004 41.3386 103.51C40.8317 104.017 40.5469 104.705 40.5469 105.422C40.5469 106.139 40.8317 106.826 41.3386 107.333C41.8455 107.84 42.5331 108.125 43.25 108.125H129.75C130.467 108.125 131.154 107.84 131.661 107.333C132.168 106.826 132.453 106.139 132.453 105.422C132.453 104.705 132.168 104.017 131.661 103.51C131.154 103.004 130.467 102.719 129.75 102.719Z" fill="black"/>
<path d="M129.75 124.344H89.2031C88.4862 124.344 87.7987 124.629 87.2917 125.135C86.7848 125.642 86.5 126.33 86.5 127.047C86.5 127.764 86.7848 128.451 87.2917 128.958C87.7987 129.465 88.4862 129.75 89.2031 129.75H129.75C130.467 129.75 131.154 129.465 131.661 128.958C132.168 128.451 132.453 127.764 132.453 127.047C132.453 126.33 132.168 125.642 131.661 125.135C131.154 124.629 130.467 124.344 129.75 124.344Z" fill="black"/>
<path d="M43.25 54.0625H81.0938C81.8107 54.0625 82.4982 53.7777 83.0051 53.2708C83.5121 52.7638 83.7969 52.0763 83.7969 51.3594C83.7969 50.6425 83.5121 49.9549 83.0051 49.448C82.4982 48.941 81.8107 48.6562 81.0938 48.6562H43.25C42.5331 48.6562 41.8455 48.941 41.3386 49.448C40.8317 49.9549 40.5469 50.6425 40.5469 51.3594C40.5469 52.0763 40.8317 52.7638 41.3386 53.2708C41.8455 53.7777 42.5331 54.0625 43.25 54.0625Z" fill="black"/>
<path d="M43.25 64.875H72.9844C73.7013 64.875 74.3888 64.5902 74.8958 64.0833C75.4027 63.5763 75.6875 62.8888 75.6875 62.1719C75.6875 61.455 75.4027 60.7674 74.8958 60.2605C74.3888 59.7535 73.7013 59.4688 72.9844 59.4688H43.25C42.5331 59.4688 41.8455 59.7535 41.3386 60.2605C40.8317 60.7674 40.5469 61.455 40.5469 62.1719C40.5469 62.8888 40.8317 63.5763 41.3386 64.0833C41.8455 64.5902 42.5331 64.875 43.25 64.875Z" fill="black"/>
<path d="M129.75 135.156H89.2031C88.4862 135.156 87.7987 135.441 87.2917 135.948C86.7848 136.455 86.5 137.142 86.5 137.859C86.5 138.576 86.7848 139.264 87.2917 139.771C87.7987 140.278 88.4862 140.562 89.2031 140.562H129.75C130.467 140.562 131.154 140.278 131.661 139.771C132.168 139.264 132.453 138.576 132.453 137.859C132.453 137.142 132.168 136.455 131.661 135.948C131.154 135.441 130.467 135.156 129.75 135.156Z" fill="black"/>
<path d="M129.75 145.969H89.2031C88.4862 145.969 87.7987 146.254 87.2917 146.76C86.7848 147.267 86.5 147.955 86.5 148.672C86.5 149.389 86.7848 150.076 87.2917 150.583C87.7987 151.09 88.4862 151.375 89.2031 151.375H129.75C130.467 151.375 131.154 151.09 131.661 150.583C132.168 150.076 132.453 149.389 132.453 148.672C132.453 147.955 132.168 147.267 131.661 146.76C131.154 146.254 130.467 145.969 129.75 145.969Z" fill="black"/>
<path d="M78.3906 124.344H43.25C42.5331 124.344 41.8455 124.629 41.3386 125.135C40.8317 125.642 40.5469 126.33 40.5469 127.047V148.672C40.5469 149.389 40.8317 150.076 41.3386 150.583C41.8455 151.09 42.5331 151.375 43.25 151.375H78.3906C79.1075 151.375 79.7951 151.09 80.302 150.583C80.809 150.076 81.0938 149.389 81.0938 148.672V127.047C81.0938 126.33 80.809 125.642 80.302 125.135C79.7951 124.629 79.1075 124.344 78.3906 124.344ZM75.6875 145.969H45.9531V129.75H75.6875V145.969Z" fill="black"/>
</svg>
