<svg height="100%" style="fill-rule:evenodd;clip-rule:evenodd;stroke-linejoin:round;stroke-miterlimit:2;" version="1.1" viewBox="0 0 128 128" width="100%" xml:space="preserve" xmlns="http://www.w3.org/2000/svg" xmlns:xlink="http://www.w3.org/1999/xlink"><g id="Icon"></g><path d="M65.511,115.593c-0.294,1.958 -1.976,3.407 -3.956,3.407l-17.11,-0c-1.98,0 -3.662,-1.449 -3.956,-3.407c-0.856,-5.71 -2.489,-16.593 -2.489,-16.593l0,-2l30,0l0,2c0,0 -1.633,10.883 -2.489,16.593Zm-0,-101.186c-0.294,-1.958 -1.976,-3.407 -3.956,-3.407l-17.11,0c-1.98,-0 -3.662,1.449 -3.956,3.407c-0.856,5.71 -2.489,16.593 -2.489,16.593l0,2l30,0l0,-2c0,-0 -1.633,-10.883 -2.489,-16.593Z" style="fill:#424243;"></path><path d="M65.7,99l0.3,-2l2,0l0,2l-2.489,16.593c-0.294,1.958 -1.976,3.407 -3.956,3.407l-17.11,-0c-1.605,0 -3.014,-0.951 -3.646,-2.354c0.504,0.228 1.062,0.354 1.646,0.354l17.11,0c1.98,0 3.662,-1.449 3.956,-3.407l1.889,-12.593l-27.1,0l-0.3,-2l27.7,0Zm-2.499,-87.646c0.149,0.328 0.254,0.681 0.31,1.053c0.856,5.71 2.489,16.593 2.489,16.593l0,2l-28,0l0,2l30,0l0,-2c0,-0 -1.633,-10.883 -2.489,-16.593c-0.207,-1.381 -1.104,-2.508 -2.31,-3.053Z" style="fill:#202020;"></path><path d="M83,44c0,-0.53 -0.211,-1.039 -0.586,-1.414c-0.375,-0.375 -0.884,-0.586 -1.414,-0.586c-1.392,0 -3,0 -3,0l0,17l3,0c0.53,0 1.039,-0.211 1.414,-0.586c0.375,-0.375 0.586,-0.884 0.586,-1.414c0,-3.271 0,-9.729 0,-13Z" style="fill:#424243;"></path><path d="M81.823,42.177c0.116,0.256 0.177,0.537 0.177,0.823c0,3.271 0,9.729 0,13c0,0.53 -0.211,1.039 -0.586,1.414c-0.375,0.375 -0.884,0.586 -1.414,0.586l-2,0l-0,1l3,0c0.53,0 1.039,-0.211 1.414,-0.586c0.375,-0.375 0.586,-0.884 0.586,-1.414c0,-3.271 0,-9.729 0,-13c0,-0.53 -0.211,-1.039 -0.586,-1.414c-0.172,-0.173 -0.373,-0.31 -0.591,-0.409Z" style="fill:#202020;"></path><path d="M80,41c0,-2.652 -1.054,-5.196 -2.929,-7.071c-1.875,-1.875 -4.419,-2.929 -7.071,-2.929l-34,0c-2.652,0 -5.196,1.054 -7.071,2.929c-1.875,1.875 -2.929,4.419 -2.929,7.071l0,48c-0,2.652 1.054,5.196 2.929,7.071c1.875,1.875 4.419,2.929 7.071,2.929l34,0c2.652,-0 5.196,-1.054 7.071,-2.929c1.875,-1.875 2.929,-4.419 2.929,-7.071l0,-48Z" style="fill:#bdbdbd;"></path><path d="M76,33c1.291,1.721 2,3.824 2,6l0,49c0,2.652 -0.468,4.781 -2.343,6.657c-1.876,1.875 -4.005,2.343 -6.657,2.343c-9.691,0 -25.309,0 -35,0c-2.176,-0 -4.279,-0.709 -6,-2c0.282,0.376 0.592,0.734 0.929,1.071c1.875,1.875 4.419,2.929 7.071,2.929l34,0c2.652,-0 5.196,-1.054 7.071,-2.929c1.875,-1.875 2.929,-4.419 2.929,-7.071l0,-48c0,-2.652 -1.054,-5.196 -2.929,-7.071c-0.337,-0.337 -0.695,-0.647 -1.071,-0.929Zm-44.359,60.123c-1.017,-1.075 -1.641,-2.526 -1.641,-4.123c0,-11.496 0,-36.504 -0,-48c0,-3.314 2.686,-6 6,-6c8.818,0 25.182,0 34,0c1.537,0 2.938,0.578 4,1.528l0,-0c-1.054,-1.725 -2.831,-3.528 -5,-3.528c-8.818,0 -25.182,0 -34,0c-3.314,0 -7,3.686 -7,7c0,11.496 0,36.504 0,48c0,2.169 1.917,4.07 3.642,5.124l-0.001,-0.001Z" style="fill:#767576;"></path><path d="M76,41c-0,-3.314 -2.686,-6 -6,-6c-8.818,0 -25.182,0 -34,0c-3.314,0 -6,2.686 -6,6c0,11.496 0,36.504 0,48c0,3.314 2.686,6 6,6c8.818,0 25.182,0 34,0c3.314,-0 6,-2.686 6,-6c0,-11.496 0,-36.504 0,-48Z" style="fill:#f6f8f9;"></path><path d="M32.876,94.124c-0.556,-0.91 -0.876,-1.98 -0.876,-3.124c0,-11.496 0,-36.504 -0,-48c0,-3.314 2.686,-6 6,-6c8.818,0 25.182,0 34,0c1.144,0 2.214,0.32 3.124,0.876c-1.054,-1.725 -2.955,-2.876 -5.124,-2.876c-8.818,0 -25.182,0 -34,0c-3.314,0 -6,2.686 -6,6c0,11.496 0,36.504 0,48c0,2.169 1.151,4.07 2.876,5.124Z" style="fill:#e0e1e0;"></path><path d="M49,44c0,-2.209 -1.791,-4 -4,-4c-1.881,0 -4.119,0 -6,0c-2.209,0 -4,1.791 -4,4c0,6.347 0,18.653 0,25c-0,2.209 1.791,4 4,4c1.881,0 4.119,0 6,0c2.209,-0 4,-1.791 4,-4c0,-6.347 0,-18.653 0,-25Z" style="fill:#41b3e6;"></path><path d="M47.284,40.716c0.451,0.647 0.716,1.435 0.716,2.284c0,6.347 0,18.653 0,25c0,2.209 -1.791,4 -4,4c-1.881,0 -4.119,0 -6,0c-0.849,-0 -1.637,-0.265 -2.284,-0.716c0.723,1.037 1.924,1.716 3.284,1.716c1.881,0 4.119,0 6,0c2.209,-0 4,-1.791 4,-4c0,-6.347 0,-18.653 0,-25c0,-1.36 -0.679,-2.561 -1.716,-3.284Z" style="fill:#2898d4;"></path><path d="M71,44c0,-2.209 -1.791,-4 -4,-4c-1.881,0 -4.119,0 -6,0c-2.209,0 -4,1.791 -4,4c0,0.332 0,0.668 0,1c-0,2.209 1.791,4 4,4c1.881,0 4.119,0 6,0c2.209,-0 4,-1.791 4,-4c-0,-0.332 -0,-0.668 -0,-1Z" style="fill:#fcd935;"></path><path d="M69.284,40.716c0.451,0.647 0.716,1.435 0.716,2.284c-0,0.332 -0,0.668 -0,1c0,2.209 -1.791,4 -4,4c-1.881,0 -4.119,0 -6,0c-0.849,-0 -1.637,-0.265 -2.284,-0.716c0.723,1.037 1.924,1.716 3.284,1.716c1.881,0 4.119,0 6,0c2.209,-0 4,-1.791 4,-4c-0,-0.332 -0,-0.668 -0,-1c0,-1.36 -0.679,-2.561 -1.716,-3.284Z" style="fill:#fbc02a;"></path><path d="M71,56c0,-2.209 -1.791,-4 -4,-4c-1.881,-0 -4.119,-0 -6,-0c-2.209,0 -4,1.791 -4,4c0,0.332 0,0.668 0,1c-0,2.209 1.791,4 4,4c1.881,-0 4.119,-0 6,-0c2.209,-0 4,-1.791 4,-4c0,-0.332 0,-0.668 0,-1Z" style="fill:#41b3e6;"></path><path d="M69.284,52.716c0.451,0.647 0.716,1.435 0.716,2.284c0,0.332 0,0.668 0,1c0,2.209 -1.791,4 -4,4c-1.881,-0 -4.119,-0 -6,-0c-0.849,-0 -1.637,-0.265 -2.284,-0.716c0.723,1.037 1.924,1.716 3.284,1.716c1.881,-0 4.119,-0 6,-0c2.209,-0 4,-1.791 4,-4c0,-0.332 0,-0.668 0,-1c0,-1.36 -0.679,-2.561 -1.716,-3.284Z" style="fill:#2898d4;"></path><path d="M71,68c0,-2.209 -1.791,-4 -4,-4c-1.881,-0 -4.119,-0 -6,-0c-2.209,0 -4,1.791 -4,4c0,0.332 0,0.668 0,1c-0,2.209 1.791,4 4,4c1.881,-0 4.119,-0 6,-0c2.209,-0 4,-1.791 4,-4c0,-0.332 0,-0.668 0,-1Z" style="fill:#fcd935;"></path><path d="M69.284,64.716c0.451,0.647 0.716,1.435 0.716,2.284c0,0.332 0,0.668 0,1c0,2.209 -1.791,4 -4,4c-1.881,-0 -4.119,-0 -6,-0c-0.849,-0 -1.637,-0.265 -2.284,-0.716c0.723,1.037 1.924,1.716 3.284,1.716c1.881,-0 4.119,-0 6,-0c2.209,-0 4,-1.791 4,-4c0,-0.332 0,-0.668 0,-1c0,-1.36 -0.679,-2.561 -1.716,-3.284Z" style="fill:#fbc02a;"></path><path d="M71,80c-0,-1.105 -0.895,-2 -2,-2c-6.302,0 -25.698,0 -32,0c-1.105,0 -2,0.895 -2,2c0,0.001 0,0.001 0,0.002c0,1.103 0.895,1.998 1.998,1.998c6.3,0 25.704,0 32.004,0c1.103,0 1.998,-0.895 1.998,-1.998c0,-0.001 0,-0.001 0,-0.002Z" style="fill:#424243;"></path><path d="M69.823,78.177c0.114,0.251 0.177,0.53 0.177,0.823c0,0.001 0,0.001 -0,0.002c-0,1.103 -0.895,1.998 -1.998,1.998c-6.3,0 -25.704,0 -32.004,0c-0.293,0 -0.571,-0.063 -0.822,-0.176c0.314,0.693 1.011,1.176 1.822,1.176c6.3,0 25.704,0 32.004,0c1.103,0 1.998,-0.895 1.998,-1.998c0,-0.001 0,-0.001 0,-0.002c-0,-0.811 -0.483,-1.509 -1.177,-1.823Z" style="fill:#202020;"></path><path d="M71,88c-0,-1.105 -0.895,-2 -2,-2c-6.302,-0 -25.698,-0 -32,-0c-1.105,0 -2,0.895 -2,2c0,0 0,0 0,0c0,1.105 0.895,2 2,2c6.302,-0 25.698,-0 32,-0c1.105,-0 2,-0.895 2,-2c0,0 0,0 0,-0Z" style="fill:#424243;"></path><path d="M69.823,86.177c0.114,0.251 0.177,0.53 0.177,0.823c0,0 0,0 0,0c-0,1.105 -0.895,2 -2,2c-6.302,-0 -25.698,-0 -32,-0c-0.294,-0 -0.572,-0.063 -0.823,-0.177c0.314,0.694 1.012,1.177 1.823,1.177c6.302,-0 25.698,-0 32,-0c1.105,-0 2,-0.895 2,-2c0,0 0,0 0,-0c-0,-0.811 -0.483,-1.509 -1.177,-1.823Z" style="fill:#202020;"></path><path d="M72,27c6.623,0 12,5.377 12,12c0,1.104 0.896,2 2,2c1.104,0 2,-0.896 2,-2c0,-8.831 -7.169,-16 -16,-16c-1.104,0 -2,0.896 -2,2c0,1.104 0.896,2 2,2Zm0,-14c14.35,0 26,11.65 26,26c0,1.104 0.896,2 2,2c1.104,0 2,-0.896 2,-2c0,-16.557 -13.443,-30 -30,-30c-1.104,0 -2,0.896 -2,2c0,1.104 0.896,2 2,2Zm0,7c10.486,0 19,8.514 19,19c0,1.104 0.896,2 2,2c1.104,0 2,-0.896 2,-2c0,-12.694 -10.306,-23 -23,-23c-1.104,0 -2,0.896 -2,2c0,1.104 0.896,2 2,2Z" style="fill:#41b3e6;"></path><path d="M82.267,26.733c2.33,2.779 3.733,6.36 3.733,10.267c0,1.104 -0.896,2 -2,2c0,1.104 0.896,2 2,2c1.104,0 2,-0.896 2,-2c0,-4.924 -2.229,-9.331 -5.733,-12.267Zm9.919,-9.919c4.853,5.331 7.814,12.416 7.814,20.186c0,1.104 -0.896,2 -2,2c0,1.104 0.896,2 2,2c1.104,0 2,-0.896 2,-2c0,-8.787 -3.786,-16.697 -9.814,-22.186Zm-4.956,4.956c3.59,4.059 5.77,9.392 5.77,15.23c0,1.087 -0.868,1.972 -1.948,1.999l-0.052,0.001c0,1.104 0.896,2 2,2c1.104,0 2,-0.896 2,-2c0,-6.856 -3.006,-13.015 -7.77,-17.23Zm-17.23,3.23l0.001,0.052c0.027,1.08 0.912,1.948 1.999,1.948c2.802,0 5.381,0.963 7.425,2.575c-2.198,-2.785 -5.604,-4.575 -9.425,-4.575Zm0,-7c0,1.104 0.896,2 2,2c4.735,0 9.067,1.736 12.395,4.605c-3.485,-4.044 -8.643,-6.605 -14.395,-6.605Zm0.168,-6.999l-0.168,-0.001c0,1.104 0.896,2 2,2c6.667,0 12.751,2.515 17.354,6.646c-4.727,-5.268 -11.57,-8.597 -19.186,-8.645Z" style="fill:#2898d4;"></path></svg>